<svg xmlns="http://www.w3.org/2000/svg" viewBox="0 0 816 406" width="816" height="406" font-family="monospace">
  <title>daily_pipeline — Module Dependencies</title>
  <defs>
    <marker id="arrow" viewBox="0 0 10 10" refX="9" refY="5" markerWidth="7" markerHeight="7" orient="auto-start-reverse">
      <polygon points="0,0 10,5 0,10" fill="#8a8a8a"/>
    </marker>
  </defs>
  <path d="M656,31 C692,31 692,203 728,203" fill="none" stroke="#8a8a8a" stroke-width="1.5" marker-end="url(#arrow)"/>
  <path d="M648,79 L656,79 C692,79 692,203 728,203" fill="none" stroke="#8a8a8a" stroke-width="1.5" marker-end="url(#arrow)"/>
  <path d="M640,127 L656,127 C692,127 692,203 728,203" fill="none" stroke="#8a8a8a" stroke-width="1.5" marker-end="url(#arrow)"/>
  <path d="M108,59 L152,59 C188,59 188,155 224,155 L376,155 C412,155 412,175 448,175 L516,175" fill="none" stroke="#8a8a8a" stroke-width="1.5" marker-end="url(#arrow)"/>
  <path d="M108,59 L152,59 C188,59 188,241 224,241" fill="none" stroke="#8a8a8a" stroke-width="1.5" marker-end="url(#arrow)"/>
  <path d="M108,59 L152,59 C188,59 188,193 224,193 L256,193" fill="none" stroke="#8a8a8a" stroke-width="1.5" marker-end="url(#arrow)"/>
  <path d="M616,223 L656,223 C692,223 692,203 728,203" fill="none" stroke="#8a8a8a" stroke-width="1.5" marker-end="url(#arrow)"/>
  <path d="M652,271 L656,271 C692,271 692,203 728,203" fill="none" stroke="#8a8a8a" stroke-width="1.5" marker-end="url(#arrow)"/>
  <path d="M376,241 C412,241 412,385 448,385 L656,385 C692,385 692,203 728,203" fill="none" stroke="#8a8a8a" stroke-width="1.5" marker-end="url(#arrow)"/>
  <path d="M344,193 L376,193 C412,193 412,31 448,31" fill="none" stroke="#8a8a8a" stroke-width="1.5" marker-end="url(#arrow)"/>
  <path d="M344,193 L376,193 C412,193 412,79 448,79 L456,79" fill="none" stroke="#8a8a8a" stroke-width="1.5" marker-end="url(#arrow)"/>
  <path d="M344,193 L376,193 C412,193 412,127 448,127 L464,127" fill="none" stroke="#8a8a8a" stroke-width="1.5" marker-end="url(#arrow)"/>
  <path d="M344,193 L376,193 C412,193 412,175 448,175 L516,175" fill="none" stroke="#8a8a8a" stroke-width="1.5" marker-end="url(#arrow)"/>
  <path d="M344,193 L376,193 C412,193 412,223 448,223 L488,223" fill="none" stroke="#8a8a8a" stroke-width="1.5" marker-end="url(#arrow)"/>
  <path d="M344,193 L376,193 C412,193 412,271 448,271 L452,271" fill="none" stroke="#8a8a8a" stroke-width="1.5" marker-end="url(#arrow)"/>
  <path d="M344,193 L376,193 C412,193 412,357 448,357 L656,357 C692,357 692,203 728,203" fill="none" stroke="#8a8a8a" stroke-width="1.5" marker-end="url(#arrow)"/>
  <path d="M344,193 L376,193 C412,193 412,319 448,319 L476,319" fill="none" stroke="#8a8a8a" stroke-width="1.5" marker-end="url(#arrow)"/>
  <path d="M628,319 L656,319 C692,319 692,203 728,203" fill="none" stroke="#8a8a8a" stroke-width="1.5" marker-end="url(#arrow)"/>
  <rect x="16" y="92" width="136" height="30" rx="6" fill="#e8eefb" stroke="#1b3fa0" stroke-width="1.5"/>
  <text x="84" y="112" font-size="13" text-anchor="middle" fill="#000000">daily_pipeline</text>
  <rect x="28" y="140" width="112" height="30" rx="6" fill="#e8eefb" stroke="#1b3fa0" stroke-width="1.5"/>
  <text x="84" y="160" font-size="13" text-anchor="middle" fill="#000000">abstraction</text>
  <rect x="448" y="16" width="208" height="30" rx="6" fill="#eef6ee" stroke="#3f8f4f" stroke-width="1.5"/>
  <text x="552" y="36" font-size="13" text-anchor="middle" fill="#000000">abstraction.synthesizer</text>
  <rect x="40" y="188" width="88" height="30" rx="6" fill="#e8eefb" stroke="#1b3fa0" stroke-width="1.5"/>
  <text x="84" y="208" font-size="13" text-anchor="middle" fill="#000000">analysis</text>
  <rect x="456" y="64" width="192" height="30" rx="6" fill="#fff8e8" stroke="#ccaa44" stroke-width="1.5"/>
  <text x="552" y="84" font-size="13" text-anchor="middle" fill="#000000">analysis.capabilities</text>
  <rect x="464" y="112" width="176" height="30" rx="6" fill="#fff8e8" stroke="#ccaa44" stroke-width="1.5"/>
  <text x="552" y="132" font-size="13" text-anchor="middle" fill="#000000">analysis.references</text>
  <rect x="60" y="44" width="48" height="30" rx="6" fill="#e8eefb" stroke="#1b3fa0" stroke-width="1.5"/>
  <text x="84" y="64" font-size="13" text-anchor="middle" fill="#000000">cli</text>
  <rect x="516" y="160" width="72" height="30" rx="6" fill="#e8eefb" stroke="#1b3fa0" stroke-width="1.5"/>
  <text x="552" y="180" font-size="13" text-anchor="middle" fill="#000000">config</text>
  <rect x="48" y="236" width="72" height="30" rx="6" fill="#e8eefb" stroke="#1b3fa0" stroke-width="1.5"/>
  <text x="84" y="256" font-size="13" text-anchor="middle" fill="#000000">ingest</text>
  <rect x="488" y="208" width="128" height="30" rx="6" fill="#ffe8e8" stroke="#cc6666" stroke-width="1.5"/>
  <text x="552" y="228" font-size="13" text-anchor="middle" fill="#000000">ingest.loader</text>
  <rect x="28" y="284" width="112" height="30" rx="6" fill="#e8eefb" stroke="#1b3fa0" stroke-width="1.5"/>
  <text x="84" y="304" font-size="13" text-anchor="middle" fill="#000000">integration</text>
  <rect x="452" y="256" width="200" height="30" rx="6" fill="#f0e8ff" stroke="#8a5cc6" stroke-width="1.5"/>
  <text x="552" y="276" font-size="13" text-anchor="middle" fill="#000000">integration.agentteams</text>
  <rect x="224" y="226" width="152" height="30" rx="6" fill="#f0e8ff" stroke="#8a5cc6" stroke-width="1.5"/>
  <text x="300" y="246" font-size="13" text-anchor="middle" fill="#000000">integration.sync</text>
  <rect x="728" y="188" width="72" height="30" rx="6" fill="#e8eefb" stroke="#1b3fa0" stroke-width="1.5"/>
  <text x="764" y="208" font-size="13" text-anchor="middle" fill="#000000">models</text>
  <rect x="256" y="178" width="88" height="30" rx="6" fill="#e8eefb" stroke="#1b3fa0" stroke-width="1.5"/>
  <text x="300" y="198" font-size="13" text-anchor="middle" fill="#000000">protocol</text>
  <rect x="36" y="332" width="96" height="30" rx="6" fill="#e8eefb" stroke="#1b3fa0" stroke-width="1.5"/>
  <text x="84" y="352" font-size="13" text-anchor="middle" fill="#000000">reporting</text>
  <rect x="476" y="304" width="152" height="30" rx="6" fill="#e8fbff" stroke="#3f8f9f" stroke-width="1.5"/>
  <text x="552" y="324" font-size="13" text-anchor="middle" fill="#000000">reporting.writer</text>
</svg>
