<svg xmlns="http://www.w3.org/2000/svg" viewBox="0 0 816 350" width="816" height="350" font-family="monospace">
  <title>daily_pipeline — Module Dependencies</title>
  <defs>
    <marker id="arrow" viewBox="0 0 10 10" refX="9" refY="5" markerWidth="7" markerHeight="7" orient="auto-start-reverse">
      <polygon points="0,0 10,5 0,10" fill="#8a8a8a"/>
    </marker>
  </defs>
  <path d="M656,31 C692,31 692,175 728,175" fill="none" stroke="#8a8a8a" stroke-width="1.5" marker-end="url(#arrow)"/>
  <path d="M648,79 C688,79 688,175 728,175" fill="none" stroke="#8a8a8a" stroke-width="1.5" marker-end="url(#arrow)"/>
  <path d="M640,127 C684,127 684,175 728,175" fill="none" stroke="#8a8a8a" stroke-width="1.5" marker-end="url(#arrow)"/>
  <path d="M108,31 C312,31 312,175 516,175" fill="none" stroke="#8a8a8a" stroke-width="1.5" marker-end="url(#arrow)"/>
  <path d="M108,31 C166,31 166,151 224,151" fill="none" stroke="#8a8a8a" stroke-width="1.5" marker-end="url(#arrow)"/>
  <path d="M108,31 C182,31 182,199 256,199" fill="none" stroke="#8a8a8a" stroke-width="1.5" marker-end="url(#arrow)"/>
  <path d="M616,223 C672,223 672,175 728,175" fill="none" stroke="#8a8a8a" stroke-width="1.5" marker-end="url(#arrow)"/>
  <path d="M652,271 C690,271 690,175 728,175" fill="none" stroke="#8a8a8a" stroke-width="1.5" marker-end="url(#arrow)"/>
  <path d="M376,151 C552,151 552,175 728,175" fill="none" stroke="#8a8a8a" stroke-width="1.5" marker-end="url(#arrow)"/>
  <path d="M344,199 C396,199 396,31 448,31" fill="none" stroke="#8a8a8a" stroke-width="1.5" marker-end="url(#arrow)"/>
  <path d="M344,199 C400,199 400,79 456,79" fill="none" stroke="#8a8a8a" stroke-width="1.5" marker-end="url(#arrow)"/>
  <path d="M344,199 C404,199 404,127 464,127" fill="none" stroke="#8a8a8a" stroke-width="1.5" marker-end="url(#arrow)"/>
  <path d="M344,199 C430,199 430,175 516,175" fill="none" stroke="#8a8a8a" stroke-width="1.5" marker-end="url(#arrow)"/>
  <path d="M344,199 C416,199 416,223 488,223" fill="none" stroke="#8a8a8a" stroke-width="1.5" marker-end="url(#arrow)"/>
  <path d="M344,199 C398,199 398,271 452,271" fill="none" stroke="#8a8a8a" stroke-width="1.5" marker-end="url(#arrow)"/>
  <path d="M344,199 C536,199 536,175 728,175" fill="none" stroke="#8a8a8a" stroke-width="1.5" marker-end="url(#arrow)"/>
  <path d="M344,199 C410,199 410,319 476,319" fill="none" stroke="#8a8a8a" stroke-width="1.5" marker-end="url(#arrow)"/>
  <path d="M628,319 C678,319 678,175 728,175" fill="none" stroke="#8a8a8a" stroke-width="1.5" marker-end="url(#arrow)"/>
  <rect x="16" y="64" width="136" height="30" rx="6" fill="#e8eefb" stroke="#1b3fa0" stroke-width="1.5"/>
  <text x="84" y="84" font-size="13" text-anchor="middle" fill="#000000">daily_pipeline</text>
  <rect x="28" y="112" width="112" height="30" rx="6" fill="#e8eefb" stroke="#1b3fa0" stroke-width="1.5"/>
  <text x="84" y="132" font-size="13" text-anchor="middle" fill="#000000">abstraction</text>
  <rect x="448" y="16" width="208" height="30" rx="6" fill="#eef6ee" stroke="#3f8f4f" stroke-width="1.5"/>
  <text x="552" y="36" font-size="13" text-anchor="middle" fill="#000000">abstraction.synthesizer</text>
  <rect x="40" y="160" width="88" height="30" rx="6" fill="#e8eefb" stroke="#1b3fa0" stroke-width="1.5"/>
  <text x="84" y="180" font-size="13" text-anchor="middle" fill="#000000">analysis</text>
  <rect x="456" y="64" width="192" height="30" rx="6" fill="#fff8e8" stroke="#ccaa44" stroke-width="1.5"/>
  <text x="552" y="84" font-size="13" text-anchor="middle" fill="#000000">analysis.capabilities</text>
  <rect x="464" y="112" width="176" height="30" rx="6" fill="#fff8e8" stroke="#ccaa44" stroke-width="1.5"/>
  <text x="552" y="132" font-size="13" text-anchor="middle" fill="#000000">analysis.references</text>
  <rect x="60" y="16" width="48" height="30" rx="6" fill="#e8eefb" stroke="#1b3fa0" stroke-width="1.5"/>
  <text x="84" y="36" font-size="13" text-anchor="middle" fill="#000000">cli</text>
  <rect x="516" y="160" width="72" height="30" rx="6" fill="#e8eefb" stroke="#1b3fa0" stroke-width="1.5"/>
  <text x="552" y="180" font-size="13" text-anchor="middle" fill="#000000">config</text>
  <rect x="48" y="208" width="72" height="30" rx="6" fill="#e8eefb" stroke="#1b3fa0" stroke-width="1.5"/>
  <text x="84" y="228" font-size="13" text-anchor="middle" fill="#000000">ingest</text>
  <rect x="488" y="208" width="128" height="30" rx="6" fill="#ffe8e8" stroke="#cc6666" stroke-width="1.5"/>
  <text x="552" y="228" font-size="13" text-anchor="middle" fill="#000000">ingest.loader</text>
  <rect x="28" y="256" width="112" height="30" rx="6" fill="#e8eefb" stroke="#1b3fa0" stroke-width="1.5"/>
  <text x="84" y="276" font-size="13" text-anchor="middle" fill="#000000">integration</text>
  <rect x="452" y="256" width="200" height="30" rx="6" fill="#f0e8ff" stroke="#8a5cc6" stroke-width="1.5"/>
  <text x="552" y="276" font-size="13" text-anchor="middle" fill="#000000">integration.agentteams</text>
  <rect x="224" y="136" width="152" height="30" rx="6" fill="#f0e8ff" stroke="#8a5cc6" stroke-width="1.5"/>
  <text x="300" y="156" font-size="13" text-anchor="middle" fill="#000000">integration.sync</text>
  <rect x="728" y="160" width="72" height="30" rx="6" fill="#e8eefb" stroke="#1b3fa0" stroke-width="1.5"/>
  <text x="764" y="180" font-size="13" text-anchor="middle" fill="#000000">models</text>
  <rect x="256" y="184" width="88" height="30" rx="6" fill="#e8eefb" stroke="#1b3fa0" stroke-width="1.5"/>
  <text x="300" y="204" font-size="13" text-anchor="middle" fill="#000000">protocol</text>
  <rect x="36" y="304" width="96" height="30" rx="6" fill="#e8eefb" stroke="#1b3fa0" stroke-width="1.5"/>
  <text x="84" y="324" font-size="13" text-anchor="middle" fill="#000000">reporting</text>
  <rect x="476" y="304" width="152" height="30" rx="6" fill="#e8fbff" stroke="#3f8f9f" stroke-width="1.5"/>
  <text x="552" y="324" font-size="13" text-anchor="middle" fill="#000000">reporting.writer</text>
</svg>
