<svg xmlns="http://www.w3.org/2000/svg" viewBox="0 0 472 254" width="472" height="254" font-family="monospace">
  <title>daily_pipeline — Architecture</title>
  <defs>
    <marker id="arrow" viewBox="0 0 10 10" refX="9" refY="5" markerWidth="7" markerHeight="7" orient="auto-start-reverse">
      <polygon points="0,0 10,5 0,10" fill="#8a8a8a"/>
    </marker>
  </defs>
  <path d="M152,127 C188,127 188,31 224,31" fill="none" stroke="#8a8a8a" stroke-width="1.5" marker-start="url(#arrow)" marker-end="url(#arrow)"/>
  <path d="M152,127 C188,127 188,79 224,79 L236,79" fill="none" stroke="#8a8a8a" stroke-width="1.5" marker-start="url(#arrow)" marker-end="url(#arrow)"/>
  <path d="M152,127 L224,127 L244,127" fill="none" stroke="#8a8a8a" stroke-width="1.5" marker-start="url(#arrow)" marker-end="url(#arrow)"/>
  <path d="M152,127 C188,127 188,175 224,175" fill="none" stroke="#8a8a8a" stroke-width="1.5" marker-start="url(#arrow)" marker-end="url(#arrow)"/>
  <path d="M152,127 C188,127 188,223 224,223 L232,223" fill="none" stroke="#8a8a8a" stroke-width="1.5" marker-start="url(#arrow)" marker-end="url(#arrow)"/>
  <rect x="16" y="112" width="136" height="30" rx="6" fill="#e8eefb" stroke="#1b3fa0" stroke-width="1.5"/>
  <text x="84" y="132" font-size="13" text-anchor="middle" fill="#000000">daily_pipeline</text>
  <rect x="224" y="16" width="232" height="30" rx="6" fill="#eef6ee" stroke="#3f8f4f" stroke-width="1.5"/>
  <text x="340" y="36" font-size="13" text-anchor="middle" fill="#000000">daily_pipeline.abstraction</text>
  <rect x="236" y="64" width="208" height="30" rx="6" fill="#eef6ee" stroke="#3f8f4f" stroke-width="1.5"/>
  <text x="340" y="84" font-size="13" text-anchor="middle" fill="#000000">daily_pipeline.analysis</text>
  <rect x="244" y="112" width="192" height="30" rx="6" fill="#eef6ee" stroke="#3f8f4f" stroke-width="1.5"/>
  <text x="340" y="132" font-size="13" text-anchor="middle" fill="#000000">daily_pipeline.ingest</text>
  <rect x="224" y="160" width="232" height="30" rx="6" fill="#eef6ee" stroke="#3f8f4f" stroke-width="1.5"/>
  <text x="340" y="180" font-size="13" text-anchor="middle" fill="#000000">daily_pipeline.integration</text>
  <rect x="232" y="208" width="216" height="30" rx="6" fill="#eef6ee" stroke="#3f8f4f" stroke-width="1.5"/>
  <text x="340" y="228" font-size="13" text-anchor="middle" fill="#000000">daily_pipeline.reporting</text>
</svg>
